<?xml version="1.0" encoding="UTF-8" standalone="no"?>
<!DOCTYPE svg PUBLIC "-//W3C//DTD SVG 1.1//EN" "http://www.w3.org/Graphics/SVG/1.1/DTD/svg11.dtd">
<svg xmlns="http://www.w3.org/2000/svg" version="1.1" viewBox="0 0 120 120">
<g stroke-width="0.00" fill="none" stroke-linecap="butt">
<path stroke="#eaa153" vector-effect="non-scaling-stroke" d="
  M 113.59 53.34
  L 64.53 69.82"
/>
<path stroke="#f0ba77" vector-effect="non-scaling-stroke" d="
  M 64.53 69.82
  C 70.37 60.41 69.25 48.64 60.64 41.66
  Q 58.08 39.58 51.82 37.27
  Q 31.58 29.78 11.55 21.53"
/>
<path stroke="#f9c584" vector-effect="non-scaling-stroke" d="
  M 64.53 69.82
  Q 64.04 87.50 64.20 106.01
  Q 64.24 110.01 62.25 113.46"
/>
<path stroke="#f0ba77" vector-effect="non-scaling-stroke" d="
  M 26.81 47.51
  A 2.00 2.00 0.0 0 0 24.81 45.51
  A 2.00 2.00 0.0 0 0 22.81 47.51
  A 2.00 2.00 0.0 0 0 24.81 49.51
  A 2.00 2.00 0.0 0 0 26.81 47.51"
/>
<path stroke="#f0ba77" vector-effect="non-scaling-stroke" d="
  M 18.55 51.58
  A 2.03 2.03 0.0 0 0 16.52 49.55
  A 2.03 2.03 0.0 0 0 14.49 51.58
  A 2.03 2.03 0.0 0 0 16.52 53.61
  A 2.03 2.03 0.0 0 0 18.55 51.58"
/>
<path stroke="#f0ba77" vector-effect="non-scaling-stroke" d="
  M 43.37 51.58
  A 2.01 2.01 0.0 0 0 41.36 49.57
  A 2.01 2.01 0.0 0 0 39.35 51.58
  A 2.01 2.01 0.0 0 0 41.36 53.59
  A 2.01 2.01 0.0 0 0 43.37 51.58"
/>
<path stroke="#f0ba77" vector-effect="non-scaling-stroke" d="
  M 35.13 55.73
  A 2.05 2.05 0.0 0 0 33.08 53.68
  A 2.05 2.05 0.0 0 0 31.03 55.73
  A 2.05 2.05 0.0 0 0 33.08 57.78
  A 2.05 2.05 0.0 0 0 35.13 55.73"
/>
<path stroke="#f0ba77" vector-effect="non-scaling-stroke" d="
  M 26.92 59.88
  A 2.09 2.09 0.0 0 0 24.83 57.79
  A 2.09 2.09 0.0 0 0 22.74 59.88
  A 2.09 2.09 0.0 0 0 24.83 61.97
  A 2.09 2.09 0.0 0 0 26.92 59.88"
/>
<path stroke="#f0ba77" vector-effect="non-scaling-stroke" d="
  M 18.57 64.01
  A 2.07 2.07 0.0 0 0 16.50 61.94
  A 2.07 2.07 0.0 0 0 14.43 64.01
  A 2.07 2.07 0.0 0 0 16.50 66.08
  A 2.07 2.07 0.0 0 0 18.57 64.01"
/>
<path stroke="#f0ba77" vector-effect="non-scaling-stroke" d="
  M 51.67 64.05
  A 2.05 2.05 0.0 0 0 49.62 62.00
  A 2.05 2.05 0.0 0 0 47.57 64.05
  A 2.05 2.05 0.0 0 0 49.62 66.10
  A 2.05 2.05 0.0 0 0 51.67 64.05"
/>
<path stroke="#f0ba77" vector-effect="non-scaling-stroke" d="
  M 43.35 68.19
  A 1.99 1.99 0.0 0 0 41.36 66.20
  A 1.99 1.99 0.0 0 0 39.37 68.19
  A 1.99 1.99 0.0 0 0 41.36 70.18
  A 1.99 1.99 0.0 0 0 43.35 68.19"
/>
<path stroke="#f0ba77" vector-effect="non-scaling-stroke" d="
  M 35.16 72.30
  A 2.06 2.06 0.0 0 0 33.10 70.24
  A 2.06 2.06 0.0 0 0 31.04 72.30
  A 2.06 2.06 0.0 0 0 33.10 74.36
  A 2.06 2.06 0.0 0 0 35.16 72.30"
/>
<path stroke="#f0ba77" vector-effect="non-scaling-stroke" d="
  M 26.86 76.45
  A 2.06 2.06 0.0 0 0 24.80 74.39
  A 2.06 2.06 0.0 0 0 22.74 76.45
  A 2.06 2.06 0.0 0 0 24.80 78.51
  A 2.06 2.06 0.0 0 0 26.86 76.45"
/>
<path stroke="#f0ba77" vector-effect="non-scaling-stroke" d="
  M 18.55 80.53
  A 2.05 2.05 0.0 0 0 16.50 78.48
  A 2.05 2.05 0.0 0 0 14.45 80.53
  A 2.05 2.05 0.0 0 0 16.50 82.58
  A 2.05 2.05 0.0 0 0 18.55 80.53"
/>
<path stroke="#f0ba77" vector-effect="non-scaling-stroke" d="
  M 51.64 80.55
  A 2.03 2.03 0.0 0 0 49.61 78.52
  A 2.03 2.03 0.0 0 0 47.58 80.55
  A 2.03 2.03 0.0 0 0 49.61 82.58
  A 2.03 2.03 0.0 0 0 51.64 80.55"
/>
<path stroke="#f0ba77" vector-effect="non-scaling-stroke" d="
  M 43.36 84.71
  A 2.01 2.01 0.0 0 0 41.35 82.70
  A 2.01 2.01 0.0 0 0 39.34 84.71
  A 2.01 2.01 0.0 0 0 41.35 86.72
  A 2.01 2.01 0.0 0 0 43.36 84.71"
/>
<path stroke="#f0ba77" vector-effect="non-scaling-stroke" d="
  M 35.18 88.82
  A 2.08 2.08 0.0 0 0 33.10 86.74
  A 2.08 2.08 0.0 0 0 31.02 88.82
  A 2.08 2.08 0.0 0 0 33.10 90.90
  A 2.08 2.08 0.0 0 0 35.18 88.82"
/>
<path stroke="#f0ba77" vector-effect="non-scaling-stroke" d="
  M 51.68 92.95
  A 2.07 2.07 0.0 0 0 49.61 90.88
  A 2.07 2.07 0.0 0 0 47.54 92.95
  A 2.07 2.07 0.0 0 0 49.61 95.02
  A 2.07 2.07 0.0 0 0 51.68 92.95"
/>
</g>
<g fill="#e09646">
<path d="
  M 113.59 53.34
  L 64.53 69.82
  C 70.37 60.41 69.25 48.64 60.64 41.66
  Q 58.08 39.58 51.82 37.27
  Q 31.58 29.78 11.55 21.53
  Q 37.17 11.03 54.69 4.93
  C 60.64 2.86 64.70 4.69 71.52 7.25
  Q 85.46 12.47 99.39 17.72
  C 110.92 22.07 118.11 27.42 117.83 40.51
  C 117.75 44.28 117.65 47.63 115.40 50.19
  Q 113.64 52.21 113.59 53.34
  Z"
/>
<path d="
  M 26.81 47.51
  A 2.00 2.00 0.0 0 1 24.81 49.51
  A 2.00 2.00 0.0 0 1 22.81 47.51
  A 2.00 2.00 0.0 0 1 24.81 45.51
  A 2.00 2.00 0.0 0 1 26.81 47.51
  Z"
/>
<path d="
  M 18.55 51.58
  A 2.03 2.03 0.0 0 1 16.52 53.61
  A 2.03 2.03 0.0 0 1 14.49 51.58
  A 2.03 2.03 0.0 0 1 16.52 49.55
  A 2.03 2.03 0.0 0 1 18.55 51.58
  Z"
/>
<path d="
  M 43.37 51.58
  A 2.01 2.01 0.0 0 1 41.36 53.59
  A 2.01 2.01 0.0 0 1 39.35 51.58
  A 2.01 2.01 0.0 0 1 41.36 49.57
  A 2.01 2.01 0.0 0 1 43.37 51.58
  Z"
/>
<path d="
  M 35.13 55.73
  A 2.05 2.05 0.0 0 1 33.08 57.78
  A 2.05 2.05 0.0 0 1 31.03 55.73
  A 2.05 2.05 0.0 0 1 33.08 53.68
  A 2.05 2.05 0.0 0 1 35.13 55.73
  Z"
/>
<path d="
  M 26.92 59.88
  A 2.09 2.09 0.0 0 1 24.83 61.97
  A 2.09 2.09 0.0 0 1 22.74 59.88
  A 2.09 2.09 0.0 0 1 24.83 57.79
  A 2.09 2.09 0.0 0 1 26.92 59.88
  Z"
/>
<path d="
  M 18.57 64.01
  A 2.07 2.07 0.0 0 1 16.50 66.08
  A 2.07 2.07 0.0 0 1 14.43 64.01
  A 2.07 2.07 0.0 0 1 16.50 61.94
  A 2.07 2.07 0.0 0 1 18.57 64.01
  Z"
/>
<path d="
  M 51.67 64.05
  A 2.05 2.05 0.0 0 1 49.62 66.10
  A 2.05 2.05 0.0 0 1 47.57 64.05
  A 2.05 2.05 0.0 0 1 49.62 62.00
  A 2.05 2.05 0.0 0 1 51.67 64.05
  Z"
/>
<path d="
  M 43.35 68.19
  A 1.99 1.99 0.0 0 1 41.36 70.18
  A 1.99 1.99 0.0 0 1 39.37 68.19
  A 1.99 1.99 0.0 0 1 41.36 66.20
  A 1.99 1.99 0.0 0 1 43.35 68.19
  Z"
/>
<path d="
  M 35.16 72.30
  A 2.06 2.06 0.0 0 1 33.10 74.36
  A 2.06 2.06 0.0 0 1 31.04 72.30
  A 2.06 2.06 0.0 0 1 33.10 70.24
  A 2.06 2.06 0.0 0 1 35.16 72.30
  Z"
/>
<path d="
  M 26.86 76.45
  A 2.06 2.06 0.0 0 1 24.80 78.51
  A 2.06 2.06 0.0 0 1 22.74 76.45
  A 2.06 2.06 0.0 0 1 24.80 74.39
  A 2.06 2.06 0.0 0 1 26.86 76.45
  Z"
/>
<path d="
  M 18.55 80.53
  A 2.05 2.05 0.0 0 1 16.50 82.58
  A 2.05 2.05 0.0 0 1 14.45 80.53
  A 2.05 2.05 0.0 0 1 16.50 78.48
  A 2.05 2.05 0.0 0 1 18.55 80.53
  Z"
/>
<path d="
  M 51.64 80.55
  A 2.03 2.03 0.0 0 1 49.61 82.58
  A 2.03 2.03 0.0 0 1 47.58 80.55
  A 2.03 2.03 0.0 0 1 49.61 78.52
  A 2.03 2.03 0.0 0 1 51.64 80.55
  Z"
/>
<path d="
  M 43.36 84.71
  A 2.01 2.01 0.0 0 1 41.35 86.72
  A 2.01 2.01 0.0 0 1 39.34 84.71
  A 2.01 2.01 0.0 0 1 41.35 82.70
  A 2.01 2.01 0.0 0 1 43.36 84.71
  Z"
/>
<path d="
  M 35.18 88.82
  A 2.08 2.08 0.0 0 1 33.10 90.90
  A 2.08 2.08 0.0 0 1 31.02 88.82
  A 2.08 2.08 0.0 0 1 33.10 86.74
  A 2.08 2.08 0.0 0 1 35.18 88.82
  Z"
/>
<path d="
  M 51.68 92.95
  A 2.07 2.07 0.0 0 1 49.61 95.02
  A 2.07 2.07 0.0 0 1 47.54 92.95
  A 2.07 2.07 0.0 0 1 49.61 90.88
  A 2.07 2.07 0.0 0 1 51.68 92.95
  Z"
/>
</g>
<path fill="#ffdea7" d="
  M 11.55 21.53
  Q 31.58 29.78 51.82 37.27
  Q 58.08 39.58 60.64 41.66
  C 69.25 48.64 70.37 60.41 64.53 69.82
  Q 64.04 87.50 64.20 106.01
  Q 64.24 110.01 62.25 113.46
  C 58.66 116.50 55.51 116.47 51.01 114.72
  Q 33.12 107.72 15.27 100.72
  C 7.60 97.71 6.25 93.23 6.25 85.00
  Q 6.26 66.44 6.24 47.86
  A 0.99 0.98 27.2 0 0 6.05 47.28
  C 0.97 40.19 -2.18 23.03 11.55 21.53
  Z
  M 26.81 47.51
  A 2.00 2.00 0.0 0 0 24.81 45.51
  A 2.00 2.00 0.0 0 0 22.81 47.51
  A 2.00 2.00 0.0 0 0 24.81 49.51
  A 2.00 2.00 0.0 0 0 26.81 47.51
  Z
  M 18.55 51.58
  A 2.03 2.03 0.0 0 0 16.52 49.55
  A 2.03 2.03 0.0 0 0 14.49 51.58
  A 2.03 2.03 0.0 0 0 16.52 53.61
  A 2.03 2.03 0.0 0 0 18.55 51.58
  Z
  M 43.37 51.58
  A 2.01 2.01 0.0 0 0 41.36 49.57
  A 2.01 2.01 0.0 0 0 39.35 51.58
  A 2.01 2.01 0.0 0 0 41.36 53.59
  A 2.01 2.01 0.0 0 0 43.37 51.58
  Z
  M 35.13 55.73
  A 2.05 2.05 0.0 0 0 33.08 53.68
  A 2.05 2.05 0.0 0 0 31.03 55.73
  A 2.05 2.05 0.0 0 0 33.08 57.78
  A 2.05 2.05 0.0 0 0 35.13 55.73
  Z
  M 26.92 59.88
  A 2.09 2.09 0.0 0 0 24.83 57.79
  A 2.09 2.09 0.0 0 0 22.74 59.88
  A 2.09 2.09 0.0 0 0 24.83 61.97
  A 2.09 2.09 0.0 0 0 26.92 59.88
  Z
  M 18.57 64.01
  A 2.07 2.07 0.0 0 0 16.50 61.94
  A 2.07 2.07 0.0 0 0 14.43 64.01
  A 2.07 2.07 0.0 0 0 16.50 66.08
  A 2.07 2.07 0.0 0 0 18.57 64.01
  Z
  M 51.67 64.05
  A 2.05 2.05 0.0 0 0 49.62 62.00
  A 2.05 2.05 0.0 0 0 47.57 64.05
  A 2.05 2.05 0.0 0 0 49.62 66.10
  A 2.05 2.05 0.0 0 0 51.67 64.05
  Z
  M 43.35 68.19
  A 1.99 1.99 0.0 0 0 41.36 66.20
  A 1.99 1.99 0.0 0 0 39.37 68.19
  A 1.99 1.99 0.0 0 0 41.36 70.18
  A 1.99 1.99 0.0 0 0 43.35 68.19
  Z
  M 35.16 72.30
  A 2.06 2.06 0.0 0 0 33.10 70.24
  A 2.06 2.06 0.0 0 0 31.04 72.30
  A 2.06 2.06 0.0 0 0 33.10 74.36
  A 2.06 2.06 0.0 0 0 35.16 72.30
  Z
  M 26.86 76.45
  A 2.06 2.06 0.0 0 0 24.80 74.39
  A 2.06 2.06 0.0 0 0 22.74 76.45
  A 2.06 2.06 0.0 0 0 24.80 78.51
  A 2.06 2.06 0.0 0 0 26.86 76.45
  Z
  M 18.55 80.53
  A 2.05 2.05 0.0 0 0 16.50 78.48
  A 2.05 2.05 0.0 0 0 14.45 80.53
  A 2.05 2.05 0.0 0 0 16.50 82.58
  A 2.05 2.05 0.0 0 0 18.55 80.53
  Z
  M 51.64 80.55
  A 2.03 2.03 0.0 0 0 49.61 78.52
  A 2.03 2.03 0.0 0 0 47.58 80.55
  A 2.03 2.03 0.0 0 0 49.61 82.58
  A 2.03 2.03 0.0 0 0 51.64 80.55
  Z
  M 43.36 84.71
  A 2.01 2.01 0.0 0 0 41.35 82.70
  A 2.01 2.01 0.0 0 0 39.34 84.71
  A 2.01 2.01 0.0 0 0 41.35 86.72
  A 2.01 2.01 0.0 0 0 43.36 84.71
  Z
  M 35.18 88.82
  A 2.08 2.08 0.0 0 0 33.10 86.74
  A 2.08 2.08 0.0 0 0 31.02 88.82
  A 2.08 2.08 0.0 0 0 33.10 90.90
  A 2.08 2.08 0.0 0 0 35.18 88.82
  Z
  M 51.68 92.95
  A 2.07 2.07 0.0 0 0 49.61 90.88
  A 2.07 2.07 0.0 0 0 47.54 92.95
  A 2.07 2.07 0.0 0 0 49.61 95.02
  A 2.07 2.07 0.0 0 0 51.68 92.95
  Z"
/>
<path fill="#f3ac60" d="
  M 113.59 53.34
  Q 114.04 81.34 113.73 88.00
  C 113.45 94.07 109.65 96.54 104.00 98.55
  Q 83.11 105.97 62.25 113.46
  Q 64.24 110.01 64.20 106.01
  Q 64.04 87.50 64.53 69.82
  L 113.59 53.34
  Z"
/>
</svg>
